<?xml version="1.0" encoding="UTF-8"?>
<!DOCTYPE svg PUBLIC "-//W3C//DTD SVG 1.1//EN" "http://www.w3.org/Graphics/SVG/1.1/DTD/svg11.dtd">
<!-- Creator: CorelDRAW 2020 (64 Bit) -->
<svg xmlns="http://www.w3.org/2000/svg" xml:space="preserve" width="400px" height="250px" version="1.1" style="shape-rendering:geometricPrecision; text-rendering:geometricPrecision; image-rendering:optimizeQuality; fill-rule:evenodd; clip-rule:evenodd"
viewBox="0 0 400 250"
 xmlns:xlink="http://www.w3.org/1999/xlink"
 xmlns:xodm="http://www.corel.com/coreldraw/odm/2003">
 <defs>
  <style type="text/css">
   <![CDATA[
    .str0 {stroke:#9758A6;stroke-width:4.17;stroke-miterlimit:22.9256}
    .fil0 {fill:#FEFEFE;fill-rule:nonzero}
   ]]>
  </style>
 </defs>
 <g id="Camada_x0020_1">
  <metadata id="CorelCorpID_0Corel-Layer"/>
  <g id="_2397861362640">
   <path class="fil0 str0" d="M71.49 69.21c-7.95,0.04 -15.89,0.13 -23.78,0.32 -0.06,-5.71 -0.02,-11.41 -0.13,-17.12 -0.1,-4.99 -0.41,-8.08 -0.95,-9.3 -0.56,-1.25 -1.67,-1.85 -3.39,-1.82 -1.87,0.01 -3.1,0.8 -3.55,2.29 -0.47,1.54 -0.66,4.78 -0.62,9.8 0.08,7.67 0.1,15.33 0.13,23 -0.01,7.64 0.02,15.31 0.02,22.97 0.01,4.85 0.35,7.98 0.9,9.44 0.55,1.45 1.77,2.12 3.58,2.04 1.77,-0.08 2.9,-0.87 3.4,-2.36 0.5,-1.49 0.73,-4.97 0.68,-10.4 -0.01,-4.13 -0.06,-8.28 -0.05,-12.43 7.96,-0.28 15.87,-0.45 23.81,-0.56 0.03,1.28 0.03,2.53 0.05,3.79 0.04,10.1 -0.58,17.29 -1.81,21.57 -1.23,4.25 -4.05,8.09 -8.51,11.49 -4.49,3.42 -10.07,5.3 -16.79,5.65 -6.98,0.37 -12.78,-0.62 -17.42,-3.08 -4.66,-2.49 -7.74,-6 -9.31,-10.78 -1.57,-4.75 -2.29,-12.04 -2.26,-21.84 0.01,-4.87 -0.03,-9.74 -0.01,-14.59 0.02,-4.85 0.03,-9.72 0,-14.59 -0.05,-7.18 0.09,-12.54 0.46,-16.18 0.4,-3.62 1.57,-7.15 3.6,-10.58 2,-3.43 4.83,-6.16 8.42,-8.27 3.52,-2.09 7.58,-3.28 12.75,-3.31 6.98,-0.01 13.45,1.42 18.48,4.48 4.87,2.94 7.99,6.7 9.64,11.04 1.61,4.34 2.45,11 2.59,20.1 0.03,3.07 0.03,6.15 0.07,9.23l0 0zm61.32 -38.15c1.12,15.11 1.48,30.19 1.69,45.23 0.22,15.07 0.48,30.18 1.03,45.25 -7.98,0.3 -15.94,0.62 -23.89,0.95 -0.29,-6.58 -0.53,-13.1 -0.64,-19.66 -0.11,-6.53 -0.15,-13.09 -0.21,-19.65 -2.31,-0.02 -4.67,-0.03 -6.93,-0.07 0.04,6.61 0.08,13.22 0.22,19.8 0.11,6.61 0.3,13.22 0.6,19.84 -7.96,0.32 -15.94,0.65 -23.84,1 -0.56,-16.12 -0.71,-32.29 -0.8,-48.39 -0.13,-16.1 -0.45,-32.21 -1.68,-48.39 7.9,0.42 15.8,0.89 23.72,1.37 0.7,5.67 1.09,11.32 1.25,16.95 0.16,5.6 0.24,11.22 0.32,16.83 2.29,0.09 4.63,0.18 6.94,0.27 -0.1,-5.56 -0.2,-11.12 -0.39,-16.69 -0.15,-5.58 -0.51,-11.18 -1.18,-16.78 7.91,0.63 15.87,1.33 23.79,2.13l0 0.01zm33.44 3.78c1.06,14.27 1.43,28.53 1.69,42.75 0.24,14.22 0.54,28.48 1.08,42.73 -7.98,0.28 -15.94,0.57 -23.9,0.85 -0.53,-14.87 -0.76,-29.73 -0.98,-44.56 -0.22,-14.81 -0.63,-29.68 -1.71,-44.57 7.93,0.91 15.89,1.87 23.82,2.8l0 0zm66.59 41.44c-7.98,-0.52 -15.88,-1.07 -23.81,-1.62 -0.15,-4.53 -0.22,-9.07 -0.36,-13.6 -0.14,-3.96 -0.47,-6.48 -0.99,-7.5 -0.55,-1.04 -1.71,-1.64 -3.44,-1.85 -1.89,-0.22 -3.09,0.24 -3.56,1.4 -0.47,1.15 -0.65,3.75 -0.56,7.8 0.19,6.17 0.33,12.34 0.48,18.54 0.13,6.14 0.25,12.34 0.39,18.51 0.08,3.9 0.39,6.44 0.95,7.64 0.58,1.2 1.79,1.74 3.59,1.73 1.79,-0.03 2.91,-0.61 3.43,-1.79 0.49,-1.16 0.64,-3.89 0.56,-8.22 -0.07,-3.27 -0.14,-6.58 -0.24,-9.85 7.97,0.29 15.94,0.6 23.9,0.92 0.01,0.95 0.02,1.92 0.05,2.87 0.21,7.7 -0.34,13.15 -1.5,16.37 -1.19,3.28 -4.15,6.15 -8.61,8.77 -4.45,2.63 -10.03,4.1 -16.79,4.35 -6.93,0.24 -12.73,-0.62 -17.34,-2.76 -4.7,-2.12 -7.8,-5.24 -9.38,-9.3 -1.63,-4.09 -2.46,-10.24 -2.6,-18.49 -0.07,-4.07 -0.18,-8.14 -0.28,-12.24 -0.09,-4.07 -0.13,-8.17 -0.22,-12.24 -0.13,-6.05 -0.04,-10.57 0.31,-13.56 0.34,-2.97 1.56,-5.71 3.64,-8.25 2.08,-2.48 4.92,-4.32 8.7,-5.36 3.71,-1.02 8.06,-1.16 13.26,-0.39 7.01,0.99 13.16,3.03 18,5.97 4.74,2.87 7.93,6.06 9.55,9.55 1.59,3.45 2.44,8.65 2.68,15.56 0.06,2.36 0.13,4.69 0.19,7.04l0 0zm63.14 13.77c0.23,6.35 0.11,10.84 -0.21,13.48 -0.33,2.66 -1.55,5.09 -3.69,7.32 -2.2,2.26 -5.17,4.05 -9.01,5.39 -3.85,1.31 -8.29,2.06 -13.48,2.24 -4.89,0.17 -9.33,-0.28 -13.24,-1.38 -3.99,-1.12 -7.23,-2.92 -9.68,-5.39 -2.51,-2.49 -4.06,-5.25 -4.6,-8.21 -0.54,-3.02 -0.88,-8.26 -1.1,-15.76 -0.12,-4.15 -0.22,-8.3 -0.34,-12.44 -0.23,-7.32 -0.21,-12.48 0.12,-15.45 0.34,-2.99 1.51,-5.6 3.66,-7.78 2.13,-2.18 5.04,-3.69 8.74,-4.42 3.72,-0.74 8.08,-0.75 13.26,0.02 4.94,0.73 9.4,2 13.48,3.73 4,1.68 7.28,3.79 9.79,6.33 2.51,2.52 4.07,5.09 4.65,7.75 0.54,2.66 0.97,7.25 1.21,13.75 0.14,3.61 0.3,7.21 0.44,10.82l0 0zm-24.64 -23.08c-0.14,-3.13 -0.47,-5.13 -0.96,-6.08 -0.49,-0.92 -1.42,-1.48 -2.89,-1.64 -1.17,-0.14 -2.1,0.12 -2.7,0.75 -0.63,0.65 -0.87,2.69 -0.73,6.22 0.22,5.35 0.38,10.67 0.53,16 0.14,5.32 0.38,10.69 0.52,16.02 0.11,3.96 0.39,6.41 0.88,7.35 0.49,0.95 1.47,1.38 3.03,1.39 1.57,-0.02 2.59,-0.54 2.98,-1.59 0.4,-1.05 0.51,-3.57 0.4,-7.51 -0.18,-5.15 -0.31,-10.32 -0.49,-15.46 -0.19,-5.15 -0.37,-10.29 -0.57,-15.46l0 0.01zm44.38 -11.13c0.19,1.78 0.29,3.57 0.4,5.36 0.17,2.78 -0.21,5.04 -1.11,6.73 -0.92,1.72 -2.66,3.11 -5.06,4.15 -2.45,1.07 -5.23,1.72 -8.34,1.91 -0.04,-1.51 -0.13,-2.99 -0.2,-4.5 2.22,-0.62 3.42,-1.64 3.64,-3.06 -1.24,-0.13 -2.53,-0.24 -3.79,-0.37 -0.22,-4.09 -0.44,-8.15 -0.79,-12.21 5.04,0.67 10.19,1.31 15.25,1.99l0 0zm58.14 22.32c-7.36,-0.53 -14.73,-1.03 -22.09,-1.49 -0.03,-1.36 -0.11,-2.71 -0.19,-4.07 -0.12,-1.89 -0.45,-3.12 -1.02,-3.68 -0.6,-0.58 -1.54,-0.93 -2.83,-1.06 -1.47,-0.14 -2.48,0.13 -3.19,0.76 -0.68,0.65 -0.97,1.67 -0.89,3.13 0.09,1.84 0.53,3.3 1.42,4.3 0.88,1 3.16,2.32 6.89,3.84 10.73,4.35 17.57,7.69 20.44,10.16 2.91,2.49 4.52,6.24 4.81,11.35 0.22,3.73 -0.41,6.46 -1.82,8.19 -1.43,1.72 -4.27,3.15 -8.61,4.39 -4.31,1.25 -9.34,1.94 -15.18,2.06 -6.38,0.15 -11.85,-0.44 -16.47,-1.85 -4.6,-1.4 -7.61,-3.32 -9.17,-5.71 -1.53,-2.37 -2.35,-5.81 -2.53,-10.21 -0.06,-1.3 -0.11,-2.58 -0.19,-3.88 7.38,0.22 14.75,0.42 22.17,0.61 0.09,2.28 0.2,4.53 0.31,6.8 0.07,2.1 0.43,3.44 1.11,4.04 0.65,0.6 1.77,0.89 3.34,0.88 1.61,0 2.77,-0.35 3.49,-1.11 0.7,-0.73 1.02,-1.86 0.96,-3.29 -0.14,-3.22 -0.96,-5.35 -2.48,-6.34 -1.58,-1.06 -5.38,-2.8 -11.43,-5.44 -6.03,-2.64 -9.97,-4.63 -11.97,-5.85 -1.97,-1.21 -3.61,-2.91 -4.97,-5 -1.35,-2.08 -2.05,-4.7 -2.21,-7.82 -0.22,-4.53 0.43,-7.75 2.14,-9.62 1.66,-1.87 4.43,-3.14 8.33,-3.83 3.83,-0.69 8.63,-0.67 14.29,-0.01 6.19,0.7 11.44,1.79 15.92,3.42 4.4,1.58 7.33,3.31 8.85,5.22 1.5,1.85 2.4,4.88 2.65,9.04 0.04,0.69 0.08,1.38 0.12,2.07l0 0z"/>
   <path class="fil0 str0" d="M18.49 141.37c7.89,-0.43 15.84,-0.9 23.76,-1.33 7.54,-0.43 13.29,-0.31 17.15,0.28 3.96,0.63 7.2,2.1 9.65,4.5 2.51,2.44 3.83,6.46 3.91,12.1 0.07,3.79 -0.72,6.42 -2.44,7.96 -1.68,1.52 -5.05,2.72 -10.05,3.58 5.62,0.82 9.42,2.21 11.44,4.26 2.02,2.01 3.01,5.21 3.06,9.46 0.01,2 0.06,4.02 0.08,6.05 0.03,4.41 -0.62,7.62 -2.03,9.73 -1.37,2.04 -3.62,3.43 -6.76,4.1 -3.14,0.68 -9.64,0.81 -19.55,0.64 -9.47,-0.2 -18.93,-0.15 -28.31,-0.07 -0.21,-10.22 -0.05,-20.41 0.16,-30.62 0.23,-10.22 0.28,-20.43 -0.07,-30.64l0 0zm24.33 9.31c0.07,4.66 0.09,9.32 0.04,13.97 1.02,-0.06 1.79,-0.11 2.38,-0.12 2.28,-0.03 3.82,-0.49 4.43,-1.29 0.62,-0.81 0.92,-3.11 0.93,-6.85 -0.02,-1.97 -0.26,-3.37 -0.82,-4.16 -0.53,-0.76 -1.2,-1.21 -2.06,-1.39 -0.88,-0.17 -2.52,-0.23 -4.9,-0.16l0 0zm-0.04 23.69c0,2.95 -0.01,5.87 -0.04,8.8 -0.05,2.9 -0.06,5.85 -0.06,8.77 3.35,-0.07 5.54,-0.43 6.42,-1.05 0.94,-0.67 1.38,-2.26 1.41,-4.83 0.01,-1.95 0.04,-3.92 0.03,-5.9 0.01,-2.72 -0.37,-4.33 -1.2,-4.93 -0.83,-0.56 -3,-0.84 -6.56,-0.86l0 0zm94.23 -39.25c0.48,7.97 0.89,15.97 1.24,23.95 0.33,8.01 0.63,16.01 0.93,23.97 0.17,5.45 0.09,9.28 -0.32,11.43 -0.4,2.2 -1.66,4.38 -3.83,6.59 -2.18,2.18 -5.11,3.77 -8.77,4.73 -3.71,0.97 -8.13,1.29 -13.22,1 -5.64,-0.33 -10.67,-1.25 -15.07,-2.78 -4.4,-1.53 -7.66,-3.39 -9.9,-5.59 -2.23,-2.17 -3.55,-4.45 -3.94,-6.79 -0.43,-2.33 -0.7,-7.24 -0.78,-14.67 -0.06,-6.51 -0.17,-13.04 -0.31,-19.55 -0.13,-6.53 -0.37,-13.03 -0.68,-19.55 7.97,-0.4 15.95,-0.8 23.95,-1.23 0.49,8.56 0.85,17.1 1.08,25.68 0.21,8.55 0.46,17.1 0.62,25.66 0.05,2.99 0.32,4.9 0.78,5.74 0.46,0.87 1.36,1.31 2.72,1.35 1.49,0.07 2.47,-0.32 2.88,-1.25 0.4,-0.92 0.53,-3.08 0.45,-6.54 -0.23,-8.5 -0.43,-16.97 -0.69,-25.5 -0.25,-8.49 -0.63,-16.98 -1.07,-25.47 7.98,-0.4 15.96,-0.81 23.93,-1.18zm9.33 -0.49c5.6,-0.26 11.25,-0.55 16.93,-0.83 11.3,-0.53 18.97,-0.55 22.97,0 4.06,0.53 7.45,2.3 10.17,5.24 2.71,2.96 4.26,7.82 4.69,14.54 0.39,6.13 -0.23,10.24 -1.87,12.34 -1.67,2.1 -5.14,3.33 -10.42,3.7 4.85,1.02 8.17,2.41 9.91,4.1 1.75,1.72 2.92,3.29 3.41,4.72 0.47,1.41 0.91,5.3 1.27,11.67 0.21,3.47 0.42,6.95 0.6,10.42 0.18,3.45 0.39,6.93 0.6,10.38 -7.6,-0.5 -15.24,-0.98 -22.84,-1.48 -0.25,-4.24 -0.45,-8.46 -0.68,-12.7 -0.2,-4.22 -0.41,-8.46 -0.61,-12.71 -0.22,-4.06 -0.78,-6.59 -1.64,-7.59 -0.83,-0.98 -2.86,-1.5 -6.22,-1.55 0.34,5.67 0.58,11.35 0.87,17.05 0.29,5.67 0.58,11.35 0.9,17.02 -8.27,-0.53 -16.48,-1.03 -24.69,-1.54 -0.57,-12.12 -1.05,-24.25 -1.57,-36.39 -0.5,-12.13 -1.1,-24.25 -1.78,-36.39l0 0zm24.74 11.72c0.33,5.6 0.64,11.2 0.93,16.79 2.72,-0.01 4.59,-0.32 5.61,-0.92 1.06,-0.63 1.48,-2.63 1.28,-5.98 -0.08,-1.4 -0.12,-2.81 -0.2,-4.22 -0.15,-2.4 -0.8,-3.97 -1.87,-4.71 -1.07,-0.73 -3.02,-1.04 -5.75,-0.96zm95.23 14.51c-8.1,0.05 -16.15,0.1 -24.22,0.12 -0.18,-2.52 -0.41,-5.05 -0.59,-7.58 -0.36,-4.82 -0.77,-7.8 -1.3,-8.97 -0.57,-1.22 -1.68,-1.77 -3.36,-1.72 -1.41,0.03 -2.33,0.58 -2.81,1.63 -0.42,1.02 -0.54,3.65 -0.24,7.86 0.47,6.61 1,13.25 1.48,19.86 0.5,6.61 1.02,13.22 1.5,19.84 0.24,3.7 0.67,6.16 1.29,7.38 0.58,1.17 1.67,1.82 3.29,1.93 1.75,0.07 2.84,-0.53 3.38,-1.84 0.56,-1.29 0.74,-3.92 0.45,-7.83 -0.25,-3.29 -0.47,-6.58 -0.75,-9.9 -1.62,-0.06 -3.21,-0.09 -4.75,-0.12 -0.33,-4.22 -0.66,-8.43 -0.99,-12.64 9.44,0.07 18.86,0.15 28.32,0.22 0.67,7.73 1.37,15.49 1.96,23.22 0.59,7.71 1.08,15.45 1.58,23.19 -5.18,-0.38 -10.36,-0.74 -15.54,-1.12 -0.89,-2.05 -1.76,-4.13 -2.62,-6.2 -1.52,2.52 -3.54,4.31 -5.99,5.44 -2.41,1.14 -5.42,1.55 -8.87,1.3 -4.12,-0.29 -8.03,-1.44 -11.77,-3.4 -3.73,-1.98 -6.51,-4.25 -8.54,-6.9 -2.03,-2.59 -3.37,-5.28 -4,-8.06 -0.62,-2.76 -1.08,-6.89 -1.43,-12.4 -0.27,-3.96 -0.53,-7.9 -0.79,-11.86 -0.26,-3.95 -0.5,-7.91 -0.79,-11.87 -0.54,-7.64 -0.41,-13.16 0.31,-16.64 0.76,-3.53 3.23,-6.78 7.53,-9.91 4.3,-3.13 10.01,-4.91 17.14,-5.26 6.98,-0.37 12.89,0.68 17.65,3.12 4.82,2.48 8.08,5.54 9.76,9.18 1.69,3.72 2.8,9.09 3.41,16.21 0.1,1.25 0.2,2.5 0.3,3.72l0 0zm6.9 -32.41c13.29,-0.68 26.59,-1.35 39.88,-2.04 0.45,6.18 0.92,12.35 1.42,18.53 -5.3,0.11 -10.62,0.28 -15.95,0.42 0.48,5.77 1,11.53 1.53,17.32 5.02,-0.02 10.02,-0.04 15.05,-0.06 0.61,5.84 1.21,11.7 1.8,17.53 -5.09,-0.08 -10.14,-0.18 -15.18,-0.29 0.61,6.66 1.19,13.34 1.74,19.97 6.02,0.28 12.01,0.54 18.03,0.82 0.52,6.17 0.97,12.35 1.37,18.53 -14.27,-0.99 -28.51,-1.98 -42.75,-2.99 -0.98,-14.61 -2.12,-29.24 -3.4,-43.85 -1.27,-14.62 -2.48,-29.27 -3.54,-43.89zm48.32 -2.47c5.64,-0.32 11.24,-0.6 16.94,-0.92 11.27,-0.6 18.94,-0.6 23.01,0.13 4.04,0.71 7.49,2.96 10.3,6.67 2.84,3.72 4.72,9.84 5.59,18.3 0.82,7.75 0.52,12.95 -0.98,15.68 -1.48,2.7 -4.82,4.36 -10.01,4.96 4.86,1.22 8.35,2.86 10.24,4.97 1.84,2.05 3.17,3.99 3.73,5.75 0.6,1.79 1.41,6.69 2.25,14.74 0.44,4.36 0.91,8.74 1.25,13.13 0.37,4.39 0.68,8.76 0.99,13.12 -7.62,-0.05 -15.23,-0.39 -22.84,-0.8 -0.38,-5.39 -0.75,-10.78 -1.23,-16.19 -0.5,-5.4 -1.01,-10.81 -1.56,-16.21 -0.55,-5.23 -1.36,-8.43 -2.28,-9.71 -0.9,-1.26 -2.99,-1.9 -6.32,-1.93 0.79,7.29 1.54,14.55 2.23,21.82 0.7,7.26 1.24,14.54 1.75,21.79 -8.26,-0.53 -16.48,-1.09 -24.69,-1.62 -1.12,-15.6 -2.52,-31.24 -4.1,-46.83 -1.58,-15.63 -3.03,-31.23 -4.27,-46.85l0 0zm25.27 15.2c0.69,7.16 1.45,14.32 2.22,21.48 2.68,-0.03 4.51,-0.42 5.51,-1.23 1.01,-0.78 1.29,-3.33 0.83,-7.61 -0.19,-1.81 -0.37,-3.6 -0.56,-5.38 -0.29,-3.08 -1.02,-5.09 -2.18,-6.02 -1.11,-0.94 -3.08,-1.36 -5.82,-1.24z"/>
  </g>
 </g>
</svg>
