<?xml version="1.0" encoding="UTF-8"?>
<!DOCTYPE svg PUBLIC "-//W3C//DTD SVG 1.1//EN" "http://www.w3.org/Graphics/SVG/1.1/DTD/svg11.dtd">
<!-- Creator: CorelDRAW 2020 (64 Bit) -->
<svg xmlns="http://www.w3.org/2000/svg" xml:space="preserve" width="200px" height="230px" version="1.1" style="shape-rendering:geometricPrecision; text-rendering:geometricPrecision; image-rendering:optimizeQuality; fill-rule:evenodd; clip-rule:evenodd"
viewBox="0 0 200 230"
 xmlns:xlink="http://www.w3.org/1999/xlink"
 xmlns:xodm="http://www.corel.com/coreldraw/odm/2003">
 <defs>
  <style type="text/css">
   <![CDATA[
    .fil0 {fill:black}
    .fil1 {fill:black;fill-rule:nonzero}
   ]]>
  </style>
 </defs>
 <g id="Camada_x0020_1">
  <metadata id="CorelCorpID_0Corel-Layer"/>
  <g id="_3245322607760">
   <path class="fil0" d="M8.87 69.32c2.31,-5.7 3.28,-8.78 6.75,-14.54 0.8,-1.33 1.67,-2.57 2.41,-3.8l3.91 -5.4c3.02,-3.83 4.87,-4.85 7.34,-7.76 1.21,-1.43 3.47,-2.84 5.18,-4.12l5.41 -3.47c28.89,-15.16 72.88,-12.66 101.04,1.23 7.44,3.68 17.09,11.09 22.18,17.73 0.08,0.1 0.29,0.42 0.37,0.52 0.05,0.08 0.12,0.19 0.18,0.27l3.17 4.36c3.5,5.87 16.42,29.44 6.75,34.38 -7.74,3.95 -53.21,-3.67 -66.1,-4.93 -5.19,-0.51 -17.41,-2.36 -22.11,-1.82 1.31,0.85 19.64,5.51 23.24,6.69 17.11,5.62 28,9.29 45.79,13.8 7.39,1.88 17.94,5.01 25.26,2.24 6.47,-2.45 11.3,-8.61 13.04,-16.85 2.43,-11.51 -3.64,-24.3 -9.02,-34.27 -3.99,-7.42 -6.4,-9.14 -9.11,-13.14 -1.56,-2.3 -1.87,-1.69 -3.66,-3.47 -2.26,-2.25 -0.01,-1.12 -3.83,-3.76 -0.65,-0.45 -0.45,-0.33 -0.96,-0.81l-0.91 -0.87c-0.64,-0.55 -1.35,-1.05 -2.02,-1.54 -32.54,-23.96 -91.72,-27.03 -126.98,-3.97 -1.12,0.73 -1.56,0.97 -2.42,1.59l-4.01 3.13c-0.79,0.79 -0.83,1.07 -1.69,1.86 -4.13,3.75 -7.56,7.51 -10.44,12.26 -0.97,1.59 -1.68,2.94 -2.57,4.57 -2.97,5.49 -7.5,15.64 -7.46,21.95l1.27 -2.06z"/>
   <path class="fil0" d="M196.72 208.02c-3.5,-2.95 -35.83,-5.75 -39.38,-6.09 -34.54,-3.24 -69.96,-7.67 -104.36,-1 -5.28,1.02 -13.87,2.61 -19.03,0 -7.27,-3.68 -8.34,-20.54 8.18,-26.31 11.66,-4.07 28.04,-3.51 40.92,-3.3 27.91,0.48 54.57,4.14 81.57,7.82 -0.67,-0.95 -0.85,-1.07 -2.35,-1.64 -0.74,-0.28 -1.54,-0.55 -2.29,-0.8l-15.38 -4.65c-29.21,-7.2 -62.11,-12 -92.22,-12.87 -8.8,-0.26 -15.3,-0.32 -22.49,3.97 -4.91,2.94 -5.5,4.02 -8.82,8.14 -0.88,1.09 -0.59,0.75 -1.22,1.91 -0.56,1.02 -1.53,2.69 -2.14,4.1 -4.17,9.56 -3.26,24.32 2.65,32.36 1.92,2.61 3.41,4.61 6.92,6.07 6.19,2.56 15.39,-0.89 21.71,-2.25 31.87,-6.86 40.56,-6.33 70.95,-7.78 8.71,-0.41 17.51,0.08 26.23,0.28 8.41,0.2 16.94,0.74 25.33,0.88 8.08,0.14 17.23,1.43 25.22,1.16z"/>
   <path class="fil1" d="M51.83 103.47c-3.1,-0.17 -6.2,-0.32 -9.28,-0.43 0.11,-2.23 0.26,-4.45 0.35,-6.68 0.08,-1.95 0.03,-3.16 -0.15,-3.65 -0.19,-0.5 -0.61,-0.76 -1.28,-0.79 -0.73,-0.04 -1.23,0.24 -1.44,0.81 -0.22,0.59 -0.37,1.85 -0.47,3.81 -0.15,2.99 -0.32,5.98 -0.49,8.97 -0.18,2.98 -0.35,5.97 -0.53,8.96 -0.11,1.89 -0.05,3.12 0.13,3.7 0.18,0.58 0.64,0.87 1.35,0.88 0.69,0.01 1.15,-0.27 1.38,-0.84 0.23,-0.57 0.4,-1.92 0.51,-4.04 0.09,-1.61 0.17,-3.23 0.27,-4.85 3.11,0.08 6.2,0.2 9.3,0.34 -0.02,0.5 -0.05,0.99 -0.07,1.48 -0.22,3.94 -0.63,6.73 -1.21,8.37 -0.58,1.63 -1.77,3.06 -3.59,4.28 -1.83,1.23 -4.05,1.83 -6.68,1.81 -2.73,-0.02 -4.97,-0.54 -6.72,-1.61 -1.76,-1.08 -2.88,-2.52 -3.38,-4.42 -0.5,-1.89 -0.61,-4.75 -0.37,-8.57 0.12,-1.9 0.22,-3.8 0.34,-5.69 0.12,-1.89 0.24,-3.79 0.34,-5.69 0.15,-2.8 0.33,-4.89 0.56,-6.3 0.24,-1.4 0.78,-2.75 1.65,-4.04 0.86,-1.29 2.03,-2.29 3.48,-3.03 1.42,-0.73 3.03,-1.1 5.05,-0.99 2.72,0.16 5.21,0.87 7.1,2.18 1.83,1.26 2.96,2.8 3.5,4.53 0.53,1.73 0.7,4.35 0.54,7.9 -0.06,1.2 -0.13,2.4 -0.19,3.6zm24.81 -13.44c0.08,5.92 -0.13,11.81 -0.4,17.68 -0.27,5.88 -0.52,11.78 -0.66,17.67 -3.12,-0.07 -6.23,-0.13 -9.34,-0.19 0.04,-2.57 0.1,-5.12 0.21,-7.68 0.11,-2.55 0.25,-5.11 0.38,-7.67 -0.9,-0.06 -1.82,-0.12 -2.7,-0.19 -0.14,2.58 -0.28,5.16 -0.38,7.73 -0.11,2.58 -0.19,5.16 -0.23,7.75 -3.11,-0.06 -6.23,-0.12 -9.32,-0.17 0.16,-6.3 0.48,-12.61 0.82,-18.89 0.33,-6.28 0.58,-12.57 0.48,-18.91 3.07,0.35 6.14,0.72 9.22,1.09 0.14,2.23 0.16,4.44 0.09,6.64 -0.07,2.19 -0.17,4.38 -0.27,6.57 0.89,0.09 1.8,0.18 2.7,0.27 0.09,-2.17 0.18,-4.34 0.24,-6.52 0.07,-2.18 0.06,-4.37 -0.07,-6.57 3.07,0.43 6.16,0.89 9.23,1.39zm12.95 2.26c0.08,5.59 -0.11,11.16 -0.34,16.71 -0.24,5.55 -0.46,11.12 -0.58,16.69 -3.12,-0.08 -6.23,-0.15 -9.34,-0.23 0.14,-5.81 0.4,-11.61 0.66,-17.4 0.26,-5.78 0.45,-11.59 0.38,-17.42 3.07,0.54 6.15,1.1 9.22,1.65zm25 17.72c-3.1,-0.39 -6.17,-0.79 -9.25,-1.19 0.05,-1.77 0.13,-3.54 0.18,-5.31 0.04,-1.55 -0.03,-2.54 -0.21,-2.95 -0.19,-0.42 -0.63,-0.68 -1.3,-0.8 -0.73,-0.13 -1.21,0.02 -1.42,0.46 -0.21,0.44 -0.34,1.45 -0.4,3.03 -0.07,2.41 -0.16,4.82 -0.25,7.24 -0.09,2.4 -0.19,4.82 -0.28,7.23 -0.06,1.52 0,2.52 0.19,3 0.2,0.48 0.66,0.72 1.36,0.76 0.7,0.03 1.15,-0.17 1.38,-0.62 0.22,-0.44 0.34,-1.5 0.41,-3.19 0.05,-1.28 0.1,-2.57 0.14,-3.85 3.1,0.3 6.2,0.61 9.3,0.92 -0.02,0.37 -0.04,0.75 -0.05,1.12 -0.1,3.01 -0.44,5.12 -0.97,6.35 -0.54,1.25 -1.76,2.3 -3.56,3.22 -1.8,0.92 -4.01,1.36 -6.65,1.3 -2.71,-0.07 -4.95,-0.54 -6.7,-1.48 -1.78,-0.94 -2.92,-2.23 -3.44,-3.85 -0.54,-1.63 -0.72,-4.05 -0.58,-7.27 0.07,-1.59 0.12,-3.18 0.18,-4.78 0.06,-1.59 0.14,-3.19 0.2,-4.78 0.09,-2.36 0.23,-4.12 0.44,-5.28 0.2,-1.15 0.74,-2.19 1.61,-3.13 0.87,-0.92 2.02,-1.57 3.52,-1.89 1.47,-0.31 3.17,-0.26 5.18,0.16 2.71,0.55 5.06,1.49 6.88,2.75 1.78,1.23 2.95,2.55 3.5,3.95 0.54,1.38 0.75,3.43 0.68,6.13 -0.03,0.92 -0.06,1.83 -0.09,2.75zm24.3 6.85c-0.06,2.48 -0.21,4.23 -0.4,5.25 -0.19,1.03 -0.72,1.95 -1.61,2.77 -0.91,0.83 -2.11,1.46 -3.64,1.89 -1.53,0.42 -3.28,0.61 -5.31,0.56 -1.91,-0.05 -3.63,-0.33 -5.13,-0.85 -1.53,-0.53 -2.75,-1.31 -3.65,-2.33 -0.92,-1.03 -1.46,-2.14 -1.6,-3.31 -0.14,-1.19 -0.15,-3.24 -0.06,-6.17 0.05,-1.62 0.11,-3.24 0.16,-4.86 0.08,-2.86 0.21,-4.87 0.41,-6.02 0.2,-1.16 0.72,-2.15 1.61,-2.95 0.88,-0.8 2.05,-1.32 3.51,-1.52 1.47,-0.2 3.17,-0.1 5.17,0.32 1.91,0.4 3.62,1 5.17,1.77 1.52,0.75 2.75,1.65 3.67,2.7 0.92,1.04 1.47,2.08 1.63,3.13 0.15,1.05 0.21,2.85 0.15,5.39 -0.03,1.41 -0.05,2.82 -0.08,4.23zm-9.07 -9.58c0.02,-1.22 -0.06,-2.01 -0.23,-2.39 -0.17,-0.37 -0.52,-0.61 -1.09,-0.71 -0.45,-0.08 -0.82,0 -1.07,0.23 -0.26,0.24 -0.4,1.03 -0.43,2.41 -0.04,2.09 -0.1,4.17 -0.17,6.25 -0.07,2.08 -0.1,4.18 -0.17,6.26 -0.05,1.55 0,2.51 0.17,2.89 0.17,0.38 0.54,0.57 1.15,0.61 0.61,0.03 1.02,-0.15 1.2,-0.55 0.18,-0.4 0.28,-1.38 0.33,-2.92 0.05,-2.01 0.12,-4.03 0.17,-6.04 0.05,-2.01 0.1,-4.02 0.14,-6.04zm17.57 -3.3c0.03,0.7 0.03,1.4 0.03,2.1 0,1.09 -0.2,1.96 -0.59,2.6 -0.4,0.65 -1.11,1.15 -2.07,1.5 -0.98,0.36 -2.08,0.55 -3.3,0.55 0.02,-0.59 0.02,-1.17 0.03,-1.76 0.88,-0.19 1.37,-0.56 1.49,-1.11 -0.48,-0.08 -0.98,-0.15 -1.47,-0.23 0.01,-1.6 0.02,-3.19 -0.02,-4.78 1.95,0.38 3.94,0.75 5.9,1.13zm22.15 10.07c-2.86,-0.38 -5.72,-0.75 -8.58,-1.1 0.02,-0.53 0.02,-1.06 0.02,-1.59 0,-0.74 -0.1,-1.23 -0.31,-1.46 -0.22,-0.24 -0.58,-0.4 -1.08,-0.48 -0.57,-0.09 -0.97,-0.01 -1.26,0.22 -0.28,0.24 -0.42,0.63 -0.42,1.2 -0.01,0.72 0.13,1.3 0.45,1.71 0.32,0.41 1.18,0.98 2.6,1.66 4.08,1.95 6.67,3.41 7.73,4.44 1.08,1.04 1.62,2.54 1.61,4.54 0,1.46 -0.31,2.51 -0.9,3.15 -0.6,0.64 -1.74,1.13 -3.46,1.51 -1.71,0.39 -3.69,0.54 -5.97,0.45 -2.49,-0.09 -4.61,-0.45 -6.38,-1.11 -1.76,-0.65 -2.89,-1.47 -3.44,-2.44 -0.54,-0.96 -0.78,-2.32 -0.75,-4.04 0.01,-0.51 0.02,-1.01 0.02,-1.52 2.87,0.26 5.74,0.51 8.63,0.76 -0.02,0.89 -0.03,1.77 -0.04,2.66 -0.02,0.82 0.09,1.35 0.34,1.6 0.24,0.25 0.67,0.39 1.28,0.42 0.63,0.04 1.09,-0.07 1.39,-0.35 0.29,-0.27 0.44,-0.7 0.45,-1.26 0.02,-1.26 -0.25,-2.11 -0.82,-2.53 -0.59,-0.45 -2.03,-1.22 -4.33,-2.39 -2.29,-1.17 -3.78,-2.04 -4.53,-2.56 -0.74,-0.52 -1.34,-1.22 -1.82,-2.07 -0.48,-0.84 -0.69,-1.88 -0.68,-3.1 0.02,-1.77 0.35,-3.01 1.06,-3.7 0.69,-0.69 1.8,-1.12 3.34,-1.3 1.51,-0.18 3.38,-0.06 5.57,0.33 2.4,0.42 4.42,0.97 6.13,1.71 1.68,0.72 2.78,1.46 3.33,2.24 0.54,0.76 0.82,1.96 0.82,3.59 0,0.27 0,0.54 0,0.81z"/>
   <path class="fil1" d="M29.47 130.37c3.09,0.02 6.2,0.02 9.3,0.04 2.95,0.01 5.19,0.19 6.68,0.51 1.53,0.34 2.76,0.99 3.66,1.98 0.92,1.01 1.34,2.61 1.24,4.81 -0.06,1.48 -0.43,2.49 -1.14,3.05 -0.69,0.55 -2.03,0.94 -4,1.16 2.17,0.45 3.62,1.08 4.36,1.93 0.74,0.83 1.05,2.1 0.97,3.76 -0.04,0.78 -0.07,1.57 -0.11,2.36 -0.09,1.72 -0.42,2.96 -1.02,3.75 -0.58,0.76 -1.49,1.25 -2.73,1.44 -1.24,0.19 -3.78,0.09 -7.64,-0.21 -3.69,-0.3 -7.38,-0.5 -11.04,-0.69 0.16,-3.99 0.46,-7.96 0.78,-11.94 0.33,-3.98 0.59,-7.96 0.69,-11.95zm9.27 4.2c-0.08,1.82 -0.18,3.64 -0.31,5.45 0.4,0 0.7,0 0.93,0.01 0.89,0.04 1.5,-0.1 1.76,-0.4 0.26,-0.3 0.43,-1.19 0.52,-2.65 0.04,-0.77 -0.02,-1.32 -0.22,-1.64 -0.19,-0.31 -0.44,-0.5 -0.77,-0.59 -0.34,-0.09 -0.98,-0.15 -1.91,-0.18zm-0.57 9.24c-0.07,1.15 -0.14,2.29 -0.22,3.43 -0.09,1.13 -0.16,2.28 -0.23,3.42 1.31,0.05 2.17,-0.04 2.53,-0.26 0.38,-0.24 0.59,-0.85 0.66,-1.85 0.05,-0.76 0.11,-1.53 0.15,-2.3 0.07,-1.06 -0.04,-1.7 -0.35,-1.95 -0.31,-0.24 -1.15,-0.4 -2.54,-0.49zm37.67 -13.1c0,3.12 -0.03,6.25 -0.08,9.37 -0.06,3.13 -0.13,6.26 -0.2,9.37 -0.06,2.13 -0.18,3.62 -0.39,4.45 -0.21,0.85 -0.75,1.67 -1.65,2.48 -0.9,0.8 -2.08,1.35 -3.53,1.64 -1.47,0.29 -3.2,0.31 -5.18,0.08 -2.19,-0.26 -4.13,-0.74 -5.81,-1.44 -1.68,-0.7 -2.91,-1.5 -3.73,-2.41 -0.82,-0.9 -1.28,-1.82 -1.38,-2.74 -0.11,-0.92 -0.1,-2.84 0.04,-5.74 0.13,-2.54 0.24,-5.09 0.34,-7.63 0.1,-2.55 0.16,-5.09 0.19,-7.64 3.12,0.03 6.24,0.06 9.37,0.08 -0.01,3.35 -0.07,6.69 -0.18,10.04 -0.12,3.34 -0.22,6.68 -0.36,10.02 -0.05,1.17 0.01,1.92 0.17,2.26 0.16,0.35 0.5,0.54 1.03,0.59 0.58,0.06 0.97,-0.07 1.15,-0.42 0.18,-0.35 0.28,-1.19 0.33,-2.54 0.11,-3.32 0.23,-6.63 0.33,-9.96 0.1,-3.32 0.15,-6.64 0.18,-9.96 3.12,0.03 6.24,0.06 9.36,0.1zm3.65 0.03c2.19,0.03 4.4,0.05 6.62,0.07 4.42,0.06 7.41,0.23 8.96,0.54 1.57,0.3 2.85,1.07 3.84,2.28 0.99,1.22 1.48,3.15 1.49,5.78 0.01,2.4 -0.33,3.99 -1.02,4.77 -0.7,0.78 -2.08,1.18 -4.15,1.2 1.87,0.51 3.13,1.13 3.77,1.83 0.64,0.71 1.06,1.35 1.22,1.92 0.15,0.56 0.23,2.09 0.22,4.58 0,1.36 0,2.72 -0.01,4.08 -0.01,1.35 -0.01,2.71 -0.01,4.06 -2.95,-0.37 -5.92,-0.74 -8.87,-1.11 0,-1.66 0.02,-3.31 0.03,-4.97 0.02,-1.65 0.04,-3.31 0.06,-4.97 0.01,-1.59 -0.15,-2.59 -0.46,-3 -0.3,-0.4 -1.08,-0.65 -2.39,-0.75 0,2.22 -0.04,4.44 -0.06,6.67 -0.02,2.22 -0.04,4.44 -0.05,6.66 -3.21,-0.4 -6.4,-0.79 -9.59,-1.18 0.06,-4.74 0.16,-9.48 0.24,-14.23 0.09,-4.74 0.14,-9.48 0.16,-14.23zm9.37 5.15c0,2.19 -0.01,4.38 -0.03,6.57 1.06,0.06 1.8,-0.02 2.21,-0.23 0.43,-0.22 0.64,-0.99 0.64,-2.3 0,-0.55 0.02,-1.1 0.02,-1.65 0,-0.94 -0.22,-1.57 -0.62,-1.88 -0.4,-0.31 -1.15,-0.48 -2.22,-0.51zm36.8 7.89c-3.16,-0.17 -6.3,-0.34 -9.45,-0.52 -0.01,-0.99 -0.04,-1.98 -0.05,-2.97 -0.03,-1.89 -0.12,-3.06 -0.3,-3.53 -0.19,-0.49 -0.61,-0.73 -1.27,-0.75 -0.55,-0.02 -0.92,0.17 -1.13,0.57 -0.19,0.39 -0.3,1.41 -0.28,3.06 0.03,2.59 0.08,5.19 0.11,7.78 0.04,2.59 0.09,5.18 0.12,7.77 0.01,1.45 0.12,2.42 0.33,2.91 0.2,0.47 0.61,0.75 1.24,0.83 0.68,0.07 1.12,-0.14 1.36,-0.64 0.25,-0.49 0.38,-1.51 0.36,-3.04 -0.02,-1.29 -0.03,-2.58 -0.06,-3.88 -0.63,-0.06 -1.25,-0.11 -1.85,-0.16 -0.03,-1.65 -0.06,-3.3 -0.09,-4.95 3.68,0.25 7.35,0.5 11.04,0.75 0.08,3.03 0.17,6.07 0.22,9.1 0.05,3.02 0.06,6.05 0.07,9.08 -2.01,-0.27 -4.02,-0.53 -6.03,-0.8 -0.3,-0.82 -0.59,-1.65 -0.88,-2.48 -0.65,0.95 -1.48,1.6 -2.46,1.98 -0.97,0.39 -2.15,0.48 -3.49,0.3 -1.6,-0.21 -3.1,-0.75 -4.51,-1.6 -1.41,-0.86 -2.44,-1.81 -3.17,-2.89 -0.73,-1.06 -1.19,-2.14 -1.37,-3.24 -0.18,-1.09 -0.26,-2.71 -0.27,-4.87 -0.01,-1.55 -0.02,-3.09 -0.03,-4.64 -0.01,-1.55 -0.01,-3.1 -0.03,-4.65 -0.03,-2.99 0.15,-5.14 0.51,-6.48 0.38,-1.36 1.42,-2.57 3.17,-3.69 1.75,-1.12 4.02,-1.68 6.81,-1.65 2.73,0.02 5.01,0.57 6.81,1.63 1.82,1.08 3.02,2.35 3.59,3.81 0.57,1.49 0.88,3.61 0.95,6.4 0.01,0.49 0.02,0.98 0.03,1.46zm3.45 -12.48c5.2,0.05 10.4,0.1 15.6,0.14 0.03,2.42 0.07,4.84 0.12,7.26 -2.07,-0.08 -4.15,-0.14 -6.23,-0.21 0.05,2.26 0.12,4.52 0.19,6.79 1.96,0.11 3.91,0.22 5.87,0.33 0.1,2.29 0.2,4.59 0.29,6.88 -1.98,-0.15 -3.95,-0.31 -5.91,-0.47 0.08,2.61 0.15,5.23 0.21,7.83 2.34,0.25 4.67,0.49 7.01,0.74 0.06,2.42 0.09,4.84 0.1,7.26 -5.54,-0.72 -11.07,-1.44 -16.6,-2.17 -0.04,-5.72 -0.14,-11.45 -0.3,-17.18 -0.15,-5.73 -0.28,-11.47 -0.35,-17.2zm18.9 0.17c2.21,0.01 4.4,0.03 6.63,0.04 4.41,0.03 7.4,0.21 8.97,0.59 1.56,0.37 2.85,1.33 3.86,2.84 1.02,1.52 1.61,3.95 1.75,7.27 0.14,3.04 -0.1,5.06 -0.75,6.09 -0.64,1.02 -1.98,1.59 -4.02,1.7 1.87,0.59 3.19,1.31 3.88,2.18 0.67,0.84 1.14,1.63 1.32,2.33 0.19,0.71 0.39,2.64 0.53,5.8 0.07,1.71 0.15,3.43 0.18,5.15 0.04,1.72 0.06,3.43 0.08,5.14 -2.97,-0.2 -5.93,-0.51 -8.89,-0.85 -0.02,-2.11 -0.04,-4.22 -0.1,-6.34 -0.07,-2.12 -0.14,-4.24 -0.23,-6.36 -0.09,-2.05 -0.33,-3.32 -0.66,-3.84 -0.32,-0.51 -1.12,-0.81 -2.42,-0.9 0.14,2.86 0.26,5.71 0.36,8.56 0.1,2.85 0.14,5.7 0.17,8.54 -3.21,-0.4 -6.4,-0.81 -9.59,-1.21 -0.07,-6.11 -0.25,-12.24 -0.5,-18.36 -0.25,-6.13 -0.45,-12.25 -0.57,-18.37zm9.5 6.52c0.1,2.81 0.23,5.62 0.36,8.43 1.05,0.05 1.77,-0.06 2.18,-0.35 0.41,-0.28 0.58,-1.27 0.5,-2.95 -0.03,-0.71 -0.06,-1.41 -0.09,-2.11 -0.04,-1.21 -0.28,-2.01 -0.71,-2.4 -0.41,-0.39 -1.17,-0.6 -2.24,-0.62z"/>
  </g>
 </g>
</svg>
